<?xml version="1.0" standalone="no"?><!DOCTYPE svg PUBLIC "-//W3C//DTD SVG 1.1//EN" "http://www.w3.org/Graphics/SVG/1.1/DTD/svg11.dtd"><svg height="1200" node-id="1" sillyvg="true" template-height="1200" template-width="1200" version="1.1" viewBox="0 0 1200 1200" width="1200" xmlns="http://www.w3.org/2000/svg" xmlns:xlink="http://www.w3.org/1999/xlink"><defs node-id="84"><linearGradient gradientUnits="userSpaceOnUse" id="SVGID_1_" node-id="10" spreadMethod="pad" x1="107.7261" x2="1018.6375" y1="916.6248" y2="916.6248"><stop offset="0" stop-color="#405ab1"></stop><stop offset="1" stop-color="#0b1066"></stop></linearGradient><linearGradient gradientUnits="userSpaceOnUse" id="SVGID_2_" node-id="53" spreadMethod="pad" x1="-2188.5767" x2="-2272.4426" y1="527.1053" y2="527.1053"><stop offset="0" stop-color="#202875"></stop><stop offset="1" stop-color="#140944"></stop></linearGradient></defs><g node-id="252"><path d="M 804.04 257.06 C 694.45 277.61 652.24 298.53 531.92 245.76 C 411.60 192.99 226.71 233.09 162.08 321.22 C 115.32 384.98 97.77 505.65 142.29 531.66 C 197.83 564.11 180.48 639.67 73.87 700.62 C 29.18 726.17 52.53 918.93 270.02 939.50 C 487.52 960.07 1092.80 1052.20 1119.64 778.50 C 1129.82 697.11 1041.90 657.75 1056.70 597.83 C 1071.50 537.91 1204.11 456.71 1127.59 327.58 C 1062.97 218.53 866.05 245.43 804.04 257.06 Z" fill="#f3f6fa" fill-rule="nonzero" group-id="1" node-id="102" stroke="none" target-height="859.20996" target-width="1174.9299" target-x="29.18" target-y="192.99"></path><g node-id="253"><path d="M 879.26 435.23 L 248.97 435.23 C 235.90 435.23 225.30 445.83 225.30 458.90 L 225.30 861.16 C 225.30 874.23 235.90 884.83 248.97 884.83 L 473.98 884.83 L 473.98 907.93 L 654.25 907.93 L 654.25 884.83 L 879.26 884.83 C 892.33 884.83 902.93 874.23 902.93 861.16 L 902.93 458.90 C 902.93 445.83 892.33 435.23 879.26 435.23 Z" fill="#6179ef" fill-rule="nonzero" group-id="1,2" node-id="106" stroke="none" target-height="472.69998" target-width="677.63" target-x="225.3" target-y="435.23"></path><path d="M 869.67 853.11 L 258.30 853.11 C 257.50 853.11 256.85 852.46 256.85 851.66 L 256.85 468.39 C 256.85 467.59 257.50 466.94 258.30 466.94 L 869.67 466.94 C 870.47 466.94 871.12 467.59 871.12 468.39 L 871.12 851.66 C 871.12 852.46 870.47 853.11 869.67 853.11 Z" fill="#f1f6ff" fill-rule="nonzero" group-id="1,2" node-id="108" stroke="none" target-height="386.16998" target-width="614.27" target-x="256.85" target-y="466.94"></path><path d="M 1011.79 928.18 L 926.48 928.18 C 938.43 920.30 946.33 906.77 946.33 891.38 L 946.33 891.38 L 180.03 891.38 L 180.03 891.38 C 180.03 906.77 187.93 920.29 199.88 928.18 L 114.57 928.18 C 110.79 928.18 107.72 931.25 107.72 935.03 C 107.72 938.81 110.78 941.88 114.57 941.88 L 1011.79 941.88 C 1015.57 941.88 1018.64 938.81 1018.64 935.03 C 1018.64 931.24 1015.57 928.18 1011.79 928.18 Z" fill="url(#SVGID_1_)" fill-rule="nonzero" group-id="1,2" node-id="110" stroke="none" target-height="50.5" target-width="910.92004" target-x="107.72" target-y="891.38"></path><path d="M 295.47 508.02 L 789.65 508.02 L 789.65 588.92 L 295.47 588.92 Z" fill="#c1deff" fill-rule="nonzero" group-id="1,2" node-id="112" stroke="none" target-height="80.899994" target-width="494.18002" target-x="295.47" target-y="508.02"></path><path d="M 295.47 738.37 L 789.65 738.37 L 789.65 768.36 L 295.47 768.36 Z" fill="#c1deff" fill-rule="nonzero" group-id="1,2" node-id="114" stroke="none" target-height="29.98999" target-width="494.18002" target-x="295.47" target-y="738.37"></path><path d="M 295.47 783.80 L 789.65 783.80 L 789.65 798.65 L 295.47 798.65 Z" fill="#c1deff" fill-rule="nonzero" group-id="1,2" node-id="116" stroke="none" target-height="14.850037" target-width="494.18002" target-x="295.47" target-y="783.8"></path><path d="M 295.47 814.09 L 789.65 814.09 L 789.65 828.94 L 295.47 828.94 Z" fill="#c1deff" fill-rule="nonzero" group-id="1,2" node-id="118" stroke="none" target-height="14.849976" target-width="494.18002" target-x="295.47" target-y="814.09"></path><path d="M 295.47 612.70 L 456.48 612.70 L 456.48 714.42 L 295.47 714.42 Z" fill="#c1deff" fill-rule="nonzero" group-id="1,2" node-id="120" stroke="none" target-height="101.71997" target-width="161.01001" target-x="295.47" target-y="612.7"></path><path d="M 486.23 612.70 L 647.24 612.70 L 647.24 714.42 L 486.23 714.42 Z" fill="#c1deff" fill-rule="nonzero" group-id="1,2" node-id="122" stroke="none" target-height="101.71997" target-width="161.00998" target-x="486.23" target-y="612.7"></path><path d="M 377.97 548.47 C 377.97 564.10 365.30 576.77 349.67 576.77 C 334.04 576.77 321.37 564.10 321.37 548.47 C 321.37 532.84 334.04 520.17 349.67 520.17 C 365.30 520.17 377.97 532.84 377.97 548.47 Z" fill="#ffffff" fill-rule="nonzero" group-id="1,2" node-id="124" stroke="none" target-height="56.600037" target-width="56.600006" target-x="321.37" target-y="520.17"></path><path d="M 390.58 528.97 L 631.03 528.97 L 631.03 536.41 L 390.58 536.41 Z" fill="#ffffff" fill-rule="nonzero" group-id="1,2" node-id="126" stroke="none" target-height="7.4400024" target-width="240.45004" target-x="390.58" target-y="528.97"></path><path d="M 390.58 545.18 L 631.03 545.18 L 631.03 552.62 L 390.58 552.62 Z" fill="#ffffff" fill-rule="nonzero" group-id="1,2" node-id="128" stroke="none" target-height="7.4400024" target-width="240.45004" target-x="390.58" target-y="545.18"></path><path d="M 390.58 561.39 L 631.03 561.39 L 631.03 568.83 L 390.58 568.83 Z" fill="#ffffff" fill-rule="nonzero" group-id="1,2" node-id="130" stroke="none" target-height="7.4400024" target-width="240.45004" target-x="390.58" target-y="561.39"></path></g><g node-id="254"><g node-id="260"><path d="M 599.41 359.47 L 961.54 359.47 L 961.54 794.93 L 599.41 794.93 Z" fill="#0b1066" fill-opacity="0.19" fill-rule="nonzero" group-id="1,3,9" node-id="137" stroke="none" target-height="435.46" target-width="362.13" target-x="599.41" target-y="359.47"></path></g><path d="M 599.41 359.47 L 943.74 359.47 L 943.74 777.13 L 599.41 777.13 Z" fill="#ffffff" fill-rule="nonzero" group-id="1,3" node-id="140" stroke="none" target-height="417.66" target-width="344.33002" target-x="599.41" target-y="359.47"></path><path d="M 599.41 359.47 L 943.74 359.47 L 943.74 484.61 L 599.41 484.61 Z" fill="#6179ef" fill-rule="nonzero" group-id="1,3" node-id="142" stroke="none" target-height="125.139984" target-width="344.33002" target-x="599.41" target-y="359.47"></path><path d="M 909.78 469.46 C 909.78 498.52 886.23 522.07 857.17 522.07 C 828.11 522.07 804.56 498.52 804.56 469.46 C 804.56 440.40 828.11 416.85 857.17 416.85 C 886.23 416.85 909.78 440.40 909.78 469.46 Z" fill="#193c87" fill-rule="nonzero" group-id="1,3" node-id="144" stroke="none" target-height="105.22" target-width="105.22003" target-x="804.56" target-y="416.85"></path><path d="M 865.77 470.82 C 872.54 467.60 877.23 460.71 877.23 452.72 C 877.23 441.64 868.25 432.66 857.17 432.66 C 846.09 432.66 837.11 441.64 837.11 452.72 C 837.11 460.72 841.80 467.60 848.57 470.82 C 837.42 472.53 828.88 482.14 828.88 493.77 L 828.88 501.34 L 885.47 501.34 L 885.47 493.77 C 885.47 482.14 876.92 472.54 865.77 470.82 Z" fill="#ffffff" fill-rule="nonzero" group-id="1,3" node-id="146" stroke="none" target-height="68.67999" target-width="56.589966" target-x="828.88" target-y="432.66"></path><path d="M 671.41 523.93 L 803.19 523.93 L 803.19 547.31 L 671.41 547.31 Z" fill="#f5634a" fill-rule="nonzero" group-id="1,3" node-id="148" stroke="none" target-height="23.380005" target-width="131.78003" target-x="671.41" target-y="523.93"></path><path d="M 652.95 536.41 C 652.95 545.88 645.28 553.55 635.81 553.55 C 626.34 553.55 618.67 545.88 618.67 536.41 C 618.67 526.94 626.34 519.27 635.81 519.27 C 645.28 519.27 652.95 526.94 652.95 536.41 Z" fill="#f9bc00" fill-rule="nonzero" group-id="1,3" node-id="150" stroke="none" target-height="34.27997" target-width="34.28003" target-x="618.67" target-y="519.27"></path><path d="M 671.41 572.81 L 887.68 572.81 L 887.68 596.19 L 671.41 596.19 Z" fill="#f5634a" fill-rule="nonzero" group-id="1,3" node-id="152" stroke="none" target-height="23.380005" target-width="216.27002" target-x="671.41" target-y="572.81"></path><path d="M 616.68 687.59 L 916.38 687.59 L 916.38 699.28 L 616.68 699.28 Z" fill="#e5e6eb" fill-rule="nonzero" group-id="1,3" node-id="154" stroke="none" target-height="11.690002" target-width="299.7" target-x="616.68" target-y="687.59"></path><path d="M 616.68 709.38 L 916.38 709.38 L 916.38 721.07 L 616.68 721.07 Z" fill="#e5e6eb" fill-rule="nonzero" group-id="1,3" node-id="156" stroke="none" target-height="11.690002" target-width="299.7" target-x="616.68" target-y="709.38"></path><path d="M 616.68 731.69 L 916.38 731.69 L 916.38 743.38 L 616.68 743.38 Z" fill="#e5e6eb" fill-rule="nonzero" group-id="1,3" node-id="158" stroke="none" target-height="11.690002" target-width="299.7" target-x="616.68" target-y="731.69"></path><path d="M 616.68 752.95 L 916.38 752.95 L 916.38 764.64 L 616.68 764.64 Z" fill="#e5e6eb" fill-rule="nonzero" group-id="1,3" node-id="160" stroke="none" target-height="11.690002" target-width="299.7" target-x="616.68" target-y="752.95"></path><path d="M 652.95 585.30 C 652.95 594.77 645.28 602.44 635.81 602.44 C 626.34 602.44 618.67 594.77 618.67 585.30 C 618.67 575.83 626.34 568.16 635.81 568.16 C 645.28 568.16 652.95 575.83 652.95 585.30 Z" fill="#f9bc00" fill-rule="nonzero" group-id="1,3" node-id="162" stroke="none" target-height="34.28003" target-width="34.28003" target-x="618.67" target-y="568.16"></path><path d="M 671.41 629.14 L 777.42 629.14 L 777.42 652.52 L 671.41 652.52 Z" fill="#f5634a" fill-rule="nonzero" group-id="1,3" node-id="164" stroke="none" target-height="23.380005" target-width="106.01001" target-x="671.41" target-y="629.14"></path><path d="M 652.95 641.63 C 652.95 651.10 645.28 658.77 635.81 658.77 C 626.34 658.77 618.67 651.10 618.67 641.63 C 618.67 632.16 626.34 624.49 635.81 624.49 C 645.28 624.49 652.95 632.16 652.95 641.63 Z" fill="#f9bc00" fill-rule="nonzero" group-id="1,3" node-id="166" stroke="none" target-height="34.28003" target-width="34.28003" target-x="618.67" target-y="624.49"></path></g><g node-id="255"><path d="M 828.64 555.18 L 793.22 489.26 L 785.61 491.09 L 822.08 560.94 Z" fill="#0b1066" fill-rule="nonzero" group-id="1,4" node-id="171" stroke="none" target-height="71.67999" target-width="43.03003" target-x="785.61" target-y="489.26"></path><path d="M 945.41 695.13 C 945.41 695.13 935.44 797.15 935.70 820.17 C 935.96 843.19 931.50 925.33 931.50 925.33 L 952.23 925.33 L 970.07 806.04 L 991.59 753.98 C 991.59 753.98 999.20 824.35 1002.09 844.23 C 1004.98 864.11 1011.27 922.97 1011.27 922.97 L 1029.11 922.71 C 1029.11 922.71 1029.37 852.60 1030.95 835.86 C 1032.53 819.12 1038.30 751.10 1039.87 741.16 C 1041.44 731.22 1041.44 702.71 1035.15 683.87 C 1028.86 665.03 945.41 695.13 945.41 695.13 Z" fill="#0b1066" fill-rule="nonzero" group-id="1,4" node-id="173" stroke="none" target-height="260.3" target-width="109.93994" target-x="931.5" target-y="665.03"></path><path d="M 943.63 560.09 C 943.63 560.09 911.88 577.05 901.00 576.11 C 890.12 575.17 853.46 564.07 843.47 556.39 C 833.48 548.71 833.35 542.05 829.00 543.55 C 824.64 545.06 819.09 546.65 814.16 549.73 C 809.23 552.82 815.95 555.59 816.68 561.02 C 817.41 566.44 822.19 566.11 831.18 569.41 C 840.17 572.71 873.20 593.14 895.72 593.60 C 918.24 594.06 936.71 590.71 952.98 580.49 C 944.59 566.36 943.63 560.09 943.63 560.09 Z" fill="#fbcfbc" fill-rule="nonzero" group-id="1,4" node-id="175" stroke="none" target-height="52.01001" target-width="143.75" target-x="809.23" target-y="542.05"></path><path d="M 899.75 588.41 L 827.85 600.70 L 861.18 657.99 L 945.67 651.97 Z" fill="#53c8ce" fill-rule="nonzero" group-id="1,4" node-id="177" stroke="none" target-height="69.58002" target-width="117.82001" target-x="827.85" target-y="588.41"></path><path d="M 1005.50 492.93 C 1005.50 492.93 1011.40 509.80 1006.68 520.00 C 1001.96 530.20 1002.74 534.91 1006.29 552.18 C 1009.84 569.45 986.22 572.98 986.22 572.98 L 981.10 552.58 C 981.10 552.58 985.04 536.88 980.31 532.96 C 975.59 529.04 968.11 509.42 975.19 490.97 C 996.05 490.18 1005.50 492.93 1005.50 492.93 Z" fill="#fbcfbc" fill-rule="nonzero" group-id="1,4" node-id="179" stroke="none" target-height="82.79999" target-width="43.29004" target-x="968.11" target-y="490.18"></path><path d="M 990.93 499.07 C 986.86 498.15 985.03 499.33 981.22 503.52 C 977.42 507.71 971.64 510.19 966.39 504.70 C 961.14 499.21 964.42 490.57 961.67 488.87 C 958.91 487.17 949.60 478.93 966.13 474.35 C 982.66 469.77 977.28 454.86 992.76 463.76 C 1008.24 472.65 1019.66 469.78 1019.00 483.12 C 1018.34 496.46 1017.03 499.34 1019.79 504.83 C 1022.55 510.32 1016.90 517.52 1012.05 518.56 C 1007.20 519.61 1002.60 514.37 1004.31 507.70 C 1006.02 501.03 998.80 501.55 996.31 502.99 C 993.82 504.44 990.93 499.07 990.93 499.07 Z" fill="#0b1066" fill-rule="nonzero" group-id="1,4" node-id="181" stroke="none" target-height="64.75" target-width="72.95001" target-x="949.6" target-y="454.86"></path><path d="M 928.94 561.20 L 948.88 587.36 L 942.10 703.82 C 942.10 703.82 976.47 743.32 1044.70 705.39 C 1044.70 658.83 1052.27 571.40 1036.00 553.09 C 1019.73 534.78 1003.46 531.90 1003.46 531.90 C 1003.46 531.90 1001.62 550.21 991.39 549.17 C 981.16 548.13 982.99 540.60 982.53 534.19 C 958.92 542.82 928.94 561.20 928.94 561.20 Z" fill="#faca00" fill-rule="nonzero" group-id="1,4" node-id="183" stroke="none" target-height="211.41998" target-width="123.33002" target-x="928.94" target-y="531.9"></path><path d="M 982.08 598.18 L 1005.50 616.72 C 1005.50 616.72 960.43 662.24 937.41 665.38 C 914.38 668.52 868.33 668.91 861.25 662.83 C 854.17 656.75 858.89 653.02 867.74 653.80 C 876.60 654.58 926.19 648.70 939.77 641.83 C 953.35 634.96 982.08 598.18 982.08 598.18 Z" fill="#fbcfbc" fill-rule="nonzero" group-id="1,4" node-id="185" stroke="none" target-height="70.72998" target-width="151.33002" target-x="854.17" target-y="598.18"></path><path d="M 952.36 922.59 C 952.36 922.59 938.19 924.36 933.07 921.61 C 926.58 920.63 920.28 926.32 913.19 926.71 C 906.10 927.10 900.00 926.91 899.22 933.18 C 898.44 939.45 941.53 939.26 948.81 939.26 C 955.11 939.46 955.11 939.46 955.11 939.46 C 955.11 939.46 956.69 922.00 952.36 922.59 Z" fill="#0b1066" fill-rule="nonzero" group-id="1,4" node-id="187" stroke="none" target-height="18.830017" target-width="58.25" target-x="898.44" target-y="920.63"></path><path d="M 1029.51 922.59 C 1029.51 922.59 1015.34 924.36 1010.22 921.61 C 1003.73 920.63 997.43 926.32 990.34 926.71 C 983.26 927.10 977.15 926.91 976.37 933.18 C 975.58 939.46 1018.68 939.26 1025.96 939.26 C 1032.26 939.46 1032.26 939.46 1032.26 939.46 C 1032.26 939.46 1033.83 922.00 1029.51 922.59 Z" fill="#0b1066" fill-rule="nonzero" group-id="1,4" node-id="189" stroke="none" target-height="18.830017" target-width="58.24994" target-x="975.58" target-y="920.63"></path><path d="M 1005.50 616.72 L 1011.01 620.97 L 1032.00 595.60 C 1032.00 595.60 1010.61 631.83 1010.22 630.52 C 1009.83 629.21 1000.25 622.02 1000.25 622.02 L 1005.50 616.72 Z" fill="#d1aa05" fill-rule="nonzero" group-id="1,4" node-id="191" stroke="none" target-height="36.23004" target-width="31.75" target-x="1000.25" target-y="595.6"></path></g><g node-id="256"><path d="M 178.06 571.36 C 178.06 571.36 168.96 560.98 163.51 548.84 C 158.06 536.70 169.40 529.60 175.47 519.35 C 181.54 509.09 184.28 508.74 183.44 501.42 C 182.60 494.10 194.91 466.72 216.25 479.90 C 221.48 477.60 238.23 488.90 235.50 501.46 C 232.78 514.02 228.38 523.02 235.71 530.97 C 243.04 538.92 247.64 558.39 245.34 563.20 C 243.04 568.01 183.81 577.85 183.81 577.85 L 178.06 571.36 Z" fill="url(#SVGID_2_)" fill-rule="nonzero" group-id="1,5" node-id="196" stroke="none" target-height="111.129974" target-width="89.58" target-x="158.06" target-y="466.72"></path><path d="M 216.25 492.92 C 216.25 492.92 220.22 495.42 224.09 498.03 C 227.96 500.65 231.22 512.76 228.18 521.76 C 225.15 530.76 223.89 532.64 221.59 532.96 C 221.59 541.65 219.71 553.47 219.71 553.47 L 202.03 555.35 C 202.03 555.35 204.02 535.57 204.02 528.98 C 204.02 522.39 198.58 522.91 197.64 519.77 C 196.70 516.63 190.84 512.76 191.68 509.72 C 192.52 506.69 197.00 508.10 198.47 509.25 C 199.92 510.41 203.32 495.12 216.25 492.92 Z" fill="#fbcfbc" fill-rule="nonzero" group-id="1,5" node-id="198" stroke="none" target-height="62.429962" target-width="40.380005" target-x="190.84" target-y="492.92"></path><path d="M 267.09 546.06 L 296.05 552.03 L 302.56 582.72 L 251.42 566.91 Z" fill="#fbcfbc" fill-rule="nonzero" group-id="1,5" node-id="200" stroke="none" target-height="36.659973" target-width="51.14" target-x="251.42" target-y="546.06"></path><path d="M 276.53 545.83 L 276.11 584.97 L 263.48 673.08 L 169.16 673.08 C 169.16 673.08 170.83 601.92 171.11 585.46 C 171.39 569.00 176.83 536.91 202.64 538.30 C 204.87 545.42 214.08 551.69 214.08 551.69 C 214.08 551.69 221.61 541.92 222.45 539.13 C 229.02 538.29 253.58 538.57 276.53 545.83 Z" fill="#9175f5" fill-rule="nonzero" group-id="1,5" node-id="202" stroke="none" target-height="136.17004" target-width="107.369995" target-x="169.16" target-y="536.91"></path><path d="M 274.41 908.26 L 275.38 929.64 L 260.56 931.82 L 257.64 909.47 Z" fill="#fbcfbc" fill-rule="nonzero" group-id="1,5" node-id="204" stroke="none" target-height="23.559998" target-width="17.73999" target-x="257.64" target-y="908.26"></path><path d="M 192.42 912.25 L 192.19 931.99 L 178.43 933.22 L 176.92 912.49 Z" fill="#fbcfbc" fill-rule="nonzero" group-id="1,5" node-id="206" stroke="none" target-height="20.96997" target-width="15.5" target-x="176.92" target-y="912.25"></path><path d="M 173.35 664.28 C 173.35 664.28 167.91 865.61 174.19 920.45 C 185.91 920.45 195.54 920.45 195.54 920.45 L 224.42 724.98 L 254.56 918.78 L 279.26 918.78 L 277.16 748.00 L 274.23 682.70 L 247.02 654.66 L 173.35 664.28 Z" fill="#0b1066" fill-rule="nonzero" group-id="1,5" node-id="208" stroke="none" target-height="265.79004" target-width="111.350006" target-x="167.91" target-y="654.66"></path><path d="M 367.39 478.18 L 483.73 593.41 C 487.99 597.63 487.99 604.51 483.73 608.73 L 295.68 794.84 C 291.62 798.86 285.14 799.01 280.89 795.19 L 164.05 690.15 C 159.52 686.08 159.26 679.06 163.48 674.67 L 352.03 478.38 C 356.20 474.04 363.12 473.95 367.39 478.18 Z" fill="#f9bc00" fill-rule="nonzero" group-id="1,5" node-id="210" stroke="none" target-height="325.06" target-width="328.72998" target-x="159.26" target-y="473.95"></path><path d="M 409.57 539.20 L 423.87 552.94 L 374.75 603.73 L 360.24 589.43 Z" fill="#ffffff" fill-rule="nonzero" group-id="1,5" node-id="212" stroke="none" target-height="64.52997" target-width="63.630005" target-x="360.24" target-y="539.2"></path><path d="M 430.81 558.56 L 445.11 572.30 L 396.00 623.09 L 381.49 608.79 Z" fill="#ffffff" fill-rule="nonzero" group-id="1,5" node-id="214" stroke="none" target-height="64.53003" target-width="63.619995" target-x="381.49" target-y="558.56"></path><path d="M 453.81 582.29 L 473.30 602.41 L 289.42 785.91 L 269.73 765.22 Z" fill="#ffffff" fill-rule="nonzero" group-id="1,5" node-id="216" stroke="none" target-height="203.62" target-width="203.56998" target-x="269.73" target-y="582.29"></path><path d="M 221.91 632.68 L 266.06 673.70 L 224.84 720.37 L 176.91 678.31 Z" fill="#ffffff" fill-rule="nonzero" group-id="1,5" node-id="218" stroke="none" target-height="87.69" target-width="89.149994" target-x="176.91" target-y="632.68"></path><path d="M 204.48 590.74 L 174.59 590.29 C 174.59 590.29 184.41 637.59 197.79 675.06 C 211.18 712.54 214.08 716.11 214.30 721.46 C 214.52 726.81 209.84 736.63 214.52 740.65 C 219.20 744.67 224.11 757.83 230.58 752.92 C 237.05 748.01 242.40 743.10 237.94 732.17 C 233.48 721.24 214.96 667.92 214.96 667.92 L 206.93 590.51 L 204.48 590.74 Z" fill="#fbcfbc" fill-rule="nonzero" group-id="1,5" node-id="220" stroke="none" target-height="167.54004" target-width="67.81" target-x="174.59" target-y="590.29"></path><path d="M 256.93 925.78 L 256.93 939.01 C 256.93 940.19 258.03 941.14 259.38 941.13 C 267.85 941.07 295.57 940.89 299.13 940.84 C 303.34 940.78 308.61 937.95 308.68 934.79 C 307.35 932.19 292.92 929.82 278.75 924.38 C 270.82 925.68 264.42 928.70 256.93 925.78 Z" fill="#150b48" fill-rule="nonzero" group-id="1,5" node-id="222" stroke="none" target-height="16.76001" target-width="51.75" target-x="256.93" target-y="924.38"></path><path d="M 175.90 927.77 L 175.90 939.98 C 175.90 941.07 176.91 941.94 178.16 941.94 C 185.98 941.89 211.54 941.72 214.83 941.67 C 218.72 941.61 223.57 939.01 223.64 936.08 C 222.41 933.68 209.10 931.49 196.03 926.48 C 188.72 927.68 182.82 930.46 175.90 927.77 Z" fill="#150b48" fill-rule="nonzero" group-id="1,5" node-id="224" stroke="none" target-height="15.460022" target-width="47.740005" target-x="175.9" target-y="926.48"></path></g><g node-id="257"><path d="M 443.30 353.37 C 438.12 348.18 432.93 343.00 427.75 337.81 C 427.35 337.41 426.98 336.99 426.53 336.51 C 427.12 335.95 427.63 335.49 428.12 335.00 C 431.00 332.13 430.99 329.91 428.07 326.99 C 423.41 322.33 418.75 317.67 414.09 313.01 C 408.68 307.60 403.28 302.18 397.85 296.78 C 395.54 294.49 393.00 294.49 390.71 296.76 C 390.07 297.39 389.55 298.13 388.54 299.35 C 388.01 298.48 387.80 297.88 387.39 297.47 C 382.22 292.26 377.04 287.08 371.85 281.90 C 367.50 277.56 362.65 277.56 358.29 281.91 C 350.65 289.53 343.03 297.16 335.41 304.79 C 331.07 309.14 331.07 314.01 335.39 318.35 C 340.57 323.54 345.75 328.73 350.96 333.89 C 351.37 334.29 351.98 334.49 352.49 334.78 C 352.43 335.02 352.36 335.26 352.30 335.50 C 351.83 335.84 351.30 336.13 350.89 336.54 C 345.73 341.68 340.62 346.86 335.44 351.98 C 333.20 354.19 332.09 356.74 332.14 359.95 C 332.25 367.71 332.20 375.47 332.21 383.23 C 332.22 389.57 335.83 393.16 342.22 393.16 C 349.82 393.15 357.42 393.07 365.02 393.15 C 368.38 393.19 371.08 392.05 373.41 389.68 C 378.56 384.46 383.77 379.30 388.96 374.12 C 389.31 373.77 389.69 373.44 390.10 373.06 C 395.74 378.71 401.30 384.27 406.86 389.83 C 411.36 394.33 416.13 394.32 420.65 389.81 C 428.21 382.26 435.76 374.71 443.31 367.15 C 447.80 362.65 447.80 357.88 443.30 353.37 Z M 351.08 323.80 C 347.95 323.51 346.09 322.51 345.02 320.40 C 343.92 318.23 343.95 315.91 345.59 314.12 C 348.67 310.75 351.88 307.48 355.25 304.42 C 357.55 302.34 361.26 302.86 363.31 305.14 C 365.38 307.45 365.44 311.00 363.28 313.27 C 360.49 316.19 357.68 319.09 354.70 321.81 C 353.56 322.85 351.93 323.35 351.08 323.80 Z M 387.31 349.61 C 381.76 355.24 376.13 360.81 370.54 366.40 C 370.28 366.66 369.99 366.90 369.71 367.14 C 366.39 370.01 361.61 369.83 358.47 366.71 C 355.47 363.74 355.21 358.73 358.22 355.61 C 364.12 349.50 370.17 343.53 376.20 337.55 C 377.69 336.07 379.63 335.48 381.37 335.41 C 384.98 335.40 387.98 337.34 389.22 340.38 C 390.63 343.87 389.89 346.99 387.31 349.61 Z M 420.70 370.37 C 417.74 373.49 414.70 376.53 411.57 379.47 C 409.69 381.23 407.37 381.47 405.06 380.36 C 402.80 379.27 401.79 377.31 401.55 374.20 C 401.97 373.38 402.39 371.87 403.33 370.84 C 406.13 367.80 409.02 364.81 412.11 362.07 C 415.64 358.94 420.80 360.58 421.96 365.02 C 422.47 367.01 422.08 368.92 420.70 370.37 Z" fill="#0b1066" fill-opacity="0.19" fill-rule="nonzero" group-id="1,6" node-id="229" stroke="none" target-height="116.76999" target-width="116.72998" target-x="331.07" target-y="277.56"></path><path d="M 429.76 317.23 C 431.49 318.96 433.19 320.71 434.97 322.38 C 436.75 324.04 439.01 324.05 440.85 322.46 C 441.77 321.66 442.63 320.79 443.49 319.93 C 447.49 315.98 447.79 310.59 443.88 306.60 C 435.48 298.03 426.95 289.59 418.43 281.15 C 416.75 279.49 414.60 278.73 412.18 278.58 C 411.26 278.79 410.33 278.97 409.42 279.22 C 406.81 279.95 405.22 282.02 403.45 283.83 C 401.05 286.28 401.09 288.59 403.51 291.01 C 412.26 299.74 421.01 308.49 429.76 317.23 Z" fill="#0b1066" fill-opacity="0.19" fill-rule="nonzero" group-id="1,6" node-id="231" stroke="none" target-height="45.47" target-width="46.74002" target-x="401.05" target-y="278.58"></path></g><g node-id="258"><path d="M 437.19 348.19 C 432.01 343.00 426.82 337.82 421.64 332.63 C 421.24 332.23 420.87 331.81 420.42 331.33 C 421.01 330.77 421.52 330.31 422.01 329.82 C 424.89 326.95 424.88 324.73 421.96 321.81 C 417.30 317.15 412.64 312.49 407.98 307.83 C 402.57 302.42 397.17 297.00 391.74 291.60 C 389.43 289.31 386.89 289.31 384.60 291.58 C 383.96 292.21 383.44 292.95 382.43 294.17 C 381.90 293.30 381.69 292.70 381.28 292.29 C 376.11 287.08 370.93 281.90 365.74 276.72 C 361.39 272.38 356.54 272.38 352.18 276.73 C 344.54 284.35 336.92 291.98 329.30 299.61 C 324.96 303.96 324.96 308.83 329.28 313.17 C 334.46 318.36 339.64 323.55 344.85 328.71 C 345.26 329.11 345.87 329.31 346.38 329.60 C 346.32 329.84 346.25 330.08 346.19 330.32 C 345.72 330.66 345.19 330.95 344.78 331.36 C 339.62 336.50 334.51 341.68 329.33 346.80 C 327.09 349.01 325.98 351.56 326.03 354.77 C 326.14 362.53 326.09 370.29 326.10 378.05 C 326.11 384.39 329.72 387.98 336.11 387.98 C 343.71 387.97 351.31 387.89 358.91 387.97 C 362.27 388.01 364.97 386.87 367.30 384.50 C 372.45 379.28 377.66 374.12 382.85 368.94 C 383.20 368.59 383.58 368.26 383.99 367.88 C 389.63 373.53 395.19 379.09 400.75 384.65 C 405.25 389.15 410.02 389.14 414.54 384.63 C 422.10 377.08 429.65 369.53 437.20 361.97 C 441.69 357.47 441.69 352.70 437.19 348.19 Z M 344.97 318.61 C 341.84 318.32 339.98 317.32 338.91 315.21 C 337.81 313.04 337.84 310.72 339.48 308.93 C 342.56 305.56 345.77 302.29 349.14 299.23 C 351.44 297.15 355.15 297.67 357.20 299.95 C 359.27 302.26 359.33 305.81 357.17 308.08 C 354.38 311.00 351.57 313.90 348.59 316.62 C 347.45 317.66 345.81 318.17 344.97 318.61 Z M 381.20 344.43 C 375.65 350.06 370.02 355.63 364.43 361.22 C 364.17 361.48 363.88 361.72 363.60 361.96 C 360.28 364.83 355.50 364.65 352.36 361.53 C 349.36 358.56 349.10 353.55 352.11 350.43 C 358.01 344.32 364.06 338.35 370.09 332.37 C 371.58 330.89 373.52 330.30 375.26 330.23 C 378.87 330.22 381.87 332.16 383.11 335.20 C 384.52 338.69 383.78 341.81 381.20 344.43 Z M 414.58 365.19 C 411.62 368.31 408.58 371.35 405.45 374.29 C 403.57 376.05 401.25 376.29 398.94 375.18 C 396.68 374.09 395.67 372.13 395.43 369.02 C 395.85 368.20 396.27 366.69 397.21 365.66 C 400.01 362.62 402.90 359.63 405.99 356.89 C 409.52 353.76 414.68 355.40 415.84 359.84 C 416.36 361.83 415.97 363.73 414.58 365.19 Z" fill="#f5634a" fill-rule="nonzero" group-id="1,7" node-id="236" stroke="none" target-height="116.76999" target-width="116.73001" target-x="324.96" target-y="272.38"></path><path d="M 423.65 312.05 C 425.38 313.78 427.08 315.53 428.86 317.20 C 430.64 318.86 432.90 318.87 434.74 317.28 C 435.66 316.48 436.52 315.61 437.38 314.75 C 441.38 310.80 441.68 305.41 437.77 301.42 C 429.37 292.85 420.84 284.41 412.32 275.97 C 410.64 274.31 408.49 273.55 406.07 273.40 C 405.15 273.61 404.22 273.79 403.31 274.04 C 400.70 274.77 399.11 276.84 397.34 278.65 C 394.94 281.10 394.98 283.41 397.40 285.83 C 406.15 294.56 414.90 303.31 423.65 312.05 Z" fill="#f5634a" fill-rule="nonzero" group-id="1,7" node-id="238" stroke="none" target-height="45.47" target-width="46.73999" target-x="394.94" target-y="273.4"></path></g><g node-id="259"><path d="M 113.74 494.21 C 84.27 494.21 60.29 470.23 60.29 440.76 C 60.29 411.29 84.27 387.31 113.74 387.31 C 143.21 387.31 167.19 411.29 167.19 440.76 C 167.18 470.24 143.21 494.21 113.74 494.21 Z M 113.74 401.76 C 92.23 401.76 74.73 419.26 74.73 440.77 C 74.73 462.28 92.23 479.78 113.74 479.78 C 135.25 479.78 152.75 462.28 152.75 440.77 C 152.75 419.26 135.25 401.76 113.74 401.76 Z" fill="#8aaaff" fill-rule="nonzero" group-id="1,8" node-id="243" stroke="none" target-height="106.899994" target-width="106.9" target-x="60.29" target-y="387.31"></path></g><path d="M 666.71 403.79 C 666.71 416.34 656.53 426.52 643.98 426.52 C 631.46 426.52 621.26 416.31 621.24 403.77 C 621.22 391.21 631.46 380.94 644.00 380.98 C 656.96 381.03 666.81 391.61 666.71 403.79 Z M 631.64 404.15 C 636.74 407.17 640.72 411.27 643.83 416.31 C 646.96 411.29 650.92 407.17 656.02 404.15 C 650.94 401.06 646.91 397.02 643.82 391.91 C 640.78 397.04 636.71 401.05 631.64 404.15 Z" fill="#ffffff" fill-rule="nonzero" group-id="1" node-id="246" stroke="none" target-height="45.579987" target-width="45.590027" target-x="621.22" target-y="380.94"></path><path d="M 719.58 403.79 C 719.58 416.34 709.40 426.52 696.85 426.52 C 684.33 426.52 674.13 416.31 674.11 403.77 C 674.09 391.21 684.33 380.94 696.87 380.98 C 709.83 381.03 719.68 391.61 719.58 403.79 Z M 684.52 404.15 C 689.62 407.17 693.60 411.27 696.71 416.31 C 699.84 411.29 703.80 407.17 708.90 404.15 C 703.82 401.06 699.79 397.02 696.70 391.91 C 693.65 397.04 689.58 401.05 684.52 404.15 Z" fill="#ffffff" fill-rule="nonzero" group-id="1" node-id="248" stroke="none" target-height="45.579987" target-width="45.589966" target-x="674.09" target-y="380.94"></path><path d="M 772.99 403.79 C 772.99 416.34 762.81 426.52 750.26 426.52 C 737.74 426.52 727.54 416.31 727.52 403.77 C 727.50 391.21 737.74 380.94 750.28 380.98 C 763.24 381.03 773.08 391.61 772.99 403.79 Z M 737.92 404.15 C 743.02 407.17 747.00 411.27 750.11 416.31 C 753.24 411.29 757.20 407.17 762.30 404.15 C 757.22 401.06 753.19 397.02 750.10 391.91 C 747.05 397.04 742.98 401.05 737.92 404.15 Z" fill="#ffffff" fill-rule="nonzero" group-id="1" node-id="250" stroke="none" target-height="45.579987" target-width="45.580017" target-x="727.5" target-y="380.94"></path></g></svg>